# xmcd
#
# Track frame offsets: 
#        150
#        14727
#        28787
#        41760
#        54017
#        65465
#        77242
#        89500
#        99842
#        115217
#
# Disc length: 1730 seconds
#
# Revision: 0
# Processed by: cddbd v1.5.2PL0 Copyright (c) Steve Scherf et al.
# Submitted via: ExactAudioCopy v1.0b1
#
DISCID=7b06c00a
DTITLE=Doug and Carol Livingston - Bandera Lady
DYEAR=2000
DGENRE=
TTITLE0=Bandera Lady
TTITLE1=It's Cowboy Lovin Night
TTITLE2=Favorite Ole Honky Tonk (Of Mine)
TTITLE3=Jones On The Jukebox
TTITLE4=Walkin' After Midnight
TTITLE5=Lawn Mower Doctor
TTITLE6=Out Of My Mind
TTITLE7=Honky Tonk Downstairs
TTITLE8=Send Me Some Lovin
TTITLE9=A Long Way From Wichita
EXTD=
EXTT0=
EXTT1=
EXTT2=
EXTT3=
EXTT4=
EXTT5=
EXTT6=
EXTT7=
EXTT8=
EXTT9=
PLAYORDER=
